<mxfile host="Electron" agent="Mozilla/5.0 (Windows NT 10.0; Win64; x64) AppleWebKit/537.36 (KHTML, like Gecko) draw.io/24.7.5 Chrome/126.0.6478.183 Electron/31.3.0 Safari/537.36" version="24.7.5">
  <diagram name="ページ1" id="LE8fIzdrHe0wcv1LTvfw">
    <mxGraphModel dx="1909" dy="1129" grid="1" gridSize="10" guides="1" tooltips="1" connect="1" arrows="1" fold="1" page="1" pageScale="1" pageWidth="1600" pageHeight="1200" math="0" shadow="0">
      <root>
        <mxCell id="0" />
        <mxCell id="cFaB45KztUIKXS-_cTrr-4" value="背景" style="locked=1;" parent="0" visible="0" />
        <mxCell id="cFaB45KztUIKXS-_cTrr-5" value="" style="rounded=0;whiteSpace=wrap;html=1;strokeWidth=3;" parent="cFaB45KztUIKXS-_cTrr-4" vertex="1">
          <mxGeometry x="1" y="1" width="1595" height="1180" as="geometry" />
        </mxCell>
        <mxCell id="cFaB45KztUIKXS-_cTrr-6" value="" style="rounded=0;whiteSpace=wrap;html=1;fillColor=#B3B3B3;fontColor=#333333;strokeColor=#666666;" parent="cFaB45KztUIKXS-_cTrr-4" vertex="1">
          <mxGeometry width="1595" height="60" as="geometry" />
        </mxCell>
        <mxCell id="cFaB45KztUIKXS-_cTrr-7" value="&lt;font style=&quot;font-size: 48px;&quot;&gt;×&lt;/font&gt;" style="rounded=0;whiteSpace=wrap;html=1;" parent="cFaB45KztUIKXS-_cTrr-4" vertex="1">
          <mxGeometry x="1550" y="10" width="40" height="40" as="geometry" />
        </mxCell>
        <mxCell id="cFaB45KztUIKXS-_cTrr-8" value="" style="rounded=0;whiteSpace=wrap;html=1;" parent="cFaB45KztUIKXS-_cTrr-4" vertex="1">
          <mxGeometry x="830" y="670" width="120" height="60" as="geometry" />
        </mxCell>
        <mxCell id="cFaB45KztUIKXS-_cTrr-9" value="ウインドウ" style="locked=1;" parent="0" />
        <mxCell id="cFaB45KztUIKXS-_cTrr-10" value="" style="rounded=0;whiteSpace=wrap;html=1;strokeWidth=3;" parent="cFaB45KztUIKXS-_cTrr-9" vertex="1">
          <mxGeometry x="1" y="1" width="1589" height="2359" as="geometry" />
        </mxCell>
        <mxCell id="cFaB45KztUIKXS-_cTrr-11" value="" style="rounded=0;whiteSpace=wrap;html=1;fillColor=#B3B3B3;fontColor=#333333;strokeColor=#666666;" parent="cFaB45KztUIKXS-_cTrr-9" vertex="1">
          <mxGeometry width="1595" height="60" as="geometry" />
        </mxCell>
        <mxCell id="cFaB45KztUIKXS-_cTrr-12" value="&lt;font style=&quot;font-size: 48px;&quot;&gt;×&lt;/font&gt;" style="rounded=0;whiteSpace=wrap;html=1;" parent="cFaB45KztUIKXS-_cTrr-9" vertex="1">
          <mxGeometry x="1550" y="10" width="40" height="40" as="geometry" />
        </mxCell>
        <mxCell id="cFaB45KztUIKXS-_cTrr-14" value="名称未設定レイヤ" style="" parent="0" />
        <mxCell id="vKDBNKoQQVE-0nd1KgR7-20" value="&lt;span style=&quot;font-size: 30px;&quot;&gt;保存&lt;/span&gt;" style="rounded=1;whiteSpace=wrap;html=1;strokeWidth=3;" parent="cFaB45KztUIKXS-_cTrr-14" vertex="1">
          <mxGeometry x="1350" y="2260" width="210" height="60" as="geometry" />
        </mxCell>
        <mxCell id="vKDBNKoQQVE-0nd1KgR7-21" value="&lt;span style=&quot;font-size: 30px;&quot;&gt;キャンセル&lt;/span&gt;" style="rounded=1;whiteSpace=wrap;html=1;strokeWidth=3;" parent="cFaB45KztUIKXS-_cTrr-14" vertex="1">
          <mxGeometry x="1120" y="2260" width="210" height="60" as="geometry" />
        </mxCell>
        <mxCell id="vKDBNKoQQVE-0nd1KgR7-37" value="&lt;span style=&quot;font-size: 30px;&quot;&gt;文書タイトル&lt;/span&gt;" style="rounded=0;whiteSpace=wrap;html=1;align=right;dashed=1;dashPattern=8 8;verticalAlign=bottom;" parent="cFaB45KztUIKXS-_cTrr-14" vertex="1">
          <mxGeometry x="100" y="137" width="290" height="46" as="geometry" />
        </mxCell>
        <mxCell id="vKDBNKoQQVE-0nd1KgR7-51" value="&lt;span style=&quot;font-size: 30px;&quot;&gt;名称及び所在地&lt;/span&gt;" style="rounded=0;whiteSpace=wrap;html=1;align=right;dashed=1;dashPattern=8 8;verticalAlign=bottom;" parent="cFaB45KztUIKXS-_cTrr-14" vertex="1">
          <mxGeometry x="100" y="204" width="290" height="46" as="geometry" />
        </mxCell>
        <mxCell id="h3XqETonyclsEtIITpm_-34" value="&lt;span style=&quot;font-size: 30px;&quot;&gt;(必要な規約)&lt;/span&gt;" style="rounded=0;whiteSpace=wrap;html=1;align=left;dashed=1;dashPattern=8 8;verticalAlign=bottom;" parent="cFaB45KztUIKXS-_cTrr-14" vertex="1">
          <mxGeometry x="25" y="76" width="330" height="46" as="geometry" />
        </mxCell>
        <mxCell id="VKnDIp-SkED8zqVfQKuU-0" value="&lt;span style=&quot;font-size: 30px;&quot;&gt;政治団体規約&lt;/span&gt;" style="rounded=0;whiteSpace=wrap;html=1;align=left;dashed=1;dashPattern=8 8;verticalAlign=bottom;" parent="cFaB45KztUIKXS-_cTrr-14" vertex="1">
          <mxGeometry x="410" y="138" width="290" height="46" as="geometry" />
        </mxCell>
        <mxCell id="VKnDIp-SkED8zqVfQKuU-1" value="&lt;span style=&quot;font-size: 30px;&quot;&gt;第１条：本会は&lt;/span&gt;" style="rounded=0;whiteSpace=wrap;html=1;align=left;dashed=1;dashPattern=8 8;verticalAlign=bottom;" parent="cFaB45KztUIKXS-_cTrr-14" vertex="1">
          <mxGeometry x="410" y="198" width="250" height="46" as="geometry" />
        </mxCell>
        <mxCell id="VKnDIp-SkED8zqVfQKuU-2" value="&lt;span style=&quot;font-size: 30px;&quot;&gt;目的&lt;/span&gt;" style="rounded=0;whiteSpace=wrap;html=1;align=right;dashed=1;dashPattern=8 8;verticalAlign=bottom;" parent="cFaB45KztUIKXS-_cTrr-14" vertex="1">
          <mxGeometry x="100" y="497" width="290" height="46" as="geometry" />
        </mxCell>
        <mxCell id="VKnDIp-SkED8zqVfQKuU-3" value="&lt;span style=&quot;font-size: 30px;&quot;&gt;事業&lt;/span&gt;" style="rounded=0;whiteSpace=wrap;html=1;align=right;dashed=1;dashPattern=8 8;verticalAlign=bottom;" parent="cFaB45KztUIKXS-_cTrr-14" vertex="1">
          <mxGeometry x="100" y="695" width="290" height="46" as="geometry" />
        </mxCell>
        <mxCell id="VKnDIp-SkED8zqVfQKuU-4" value="&lt;span style=&quot;font-size: 30px;&quot;&gt;第２条：本会は、&lt;/span&gt;" style="rounded=0;whiteSpace=wrap;html=1;align=left;dashed=1;dashPattern=8 8;verticalAlign=bottom;" parent="cFaB45KztUIKXS-_cTrr-14" vertex="1">
          <mxGeometry x="410" y="498" width="280" height="46" as="geometry" />
        </mxCell>
        <mxCell id="VKnDIp-SkED8zqVfQKuU-5" value="&lt;div&gt;&lt;span style=&quot;font-size: 30px;&quot;&gt;第３条：本会は、前条の目的を達成するため次の事業を行う。&lt;/span&gt;&lt;/div&gt;" style="rounded=0;whiteSpace=wrap;html=1;align=left;dashed=1;dashPattern=8 8;verticalAlign=bottom;" parent="cFaB45KztUIKXS-_cTrr-14" vertex="1">
          <mxGeometry x="410" y="698" width="870" height="46" as="geometry" />
        </mxCell>
        <mxCell id="VKnDIp-SkED8zqVfQKuU-6" value="&lt;span style=&quot;font-size: 30px;&quot;&gt;会員&lt;/span&gt;" style="rounded=0;whiteSpace=wrap;html=1;align=right;dashed=1;dashPattern=8 8;verticalAlign=bottom;" parent="cFaB45KztUIKXS-_cTrr-14" vertex="1">
          <mxGeometry x="100" y="768" width="290" height="46" as="geometry" />
        </mxCell>
        <mxCell id="VKnDIp-SkED8zqVfQKuU-7" value="&lt;span style=&quot;font-size: 30px;&quot;&gt;役員の選出及び任期&lt;/span&gt;" style="rounded=0;whiteSpace=wrap;html=1;align=right;dashed=1;dashPattern=8 8;verticalAlign=bottom;" parent="cFaB45KztUIKXS-_cTrr-14" vertex="1">
          <mxGeometry x="100" y="994" width="290" height="46" as="geometry" />
        </mxCell>
        <mxCell id="VKnDIp-SkED8zqVfQKuU-8" value="&lt;div&gt;&lt;span style=&quot;font-size: 30px;&quot;&gt;第６条：&lt;/span&gt;&lt;span style=&quot;font-size: 30px; background-color: initial;&quot;&gt;役員は、総会において選出する。&lt;/span&gt;&lt;/div&gt;&lt;div&gt;&lt;span style=&quot;font-size: 30px;&quot;&gt;役員の任期は１年とする。ただし、再任を妨げない。&lt;/span&gt;&lt;/div&gt;&lt;div&gt;&lt;br&gt;&lt;/div&gt;" style="rounded=0;whiteSpace=wrap;html=1;align=left;dashed=1;dashPattern=8 8;verticalAlign=bottom;" parent="cFaB45KztUIKXS-_cTrr-14" vertex="1">
          <mxGeometry x="409" y="998" width="1021" height="92" as="geometry" />
        </mxCell>
        <mxCell id="VKnDIp-SkED8zqVfQKuU-9" value="&lt;span style=&quot;font-size: 30px;&quot;&gt;第４条：本会は、第２条の目的に賛同し、入会の意思(書面・電磁記録)を提出した者をもって会員とする&lt;/span&gt;" style="rounded=0;whiteSpace=wrap;html=1;align=left;dashed=1;dashPattern=8 8;verticalAlign=top;" parent="cFaB45KztUIKXS-_cTrr-14" vertex="1">
          <mxGeometry x="410" y="768" width="1010" height="92" as="geometry" />
        </mxCell>
        <mxCell id="VKnDIp-SkED8zqVfQKuU-11" value="&lt;span style=&quot;font-size: 30px;&quot;&gt;会議&lt;/span&gt;" style="rounded=0;whiteSpace=wrap;html=1;align=right;dashed=1;dashPattern=8 8;verticalAlign=bottom;" parent="cFaB45KztUIKXS-_cTrr-14" vertex="1">
          <mxGeometry x="100" y="1114" width="290" height="46" as="geometry" />
        </mxCell>
        <mxCell id="VKnDIp-SkED8zqVfQKuU-12" value="&lt;div&gt;&lt;span style=&quot;font-size: 30px;&quot;&gt;第７条：&lt;/span&gt;&lt;span style=&quot;font-size: 30px; background-color: initial;&quot;&gt;会長は、毎年１回の通常総会、その他必要に応じて臨時総会を招集する。&lt;/span&gt;&lt;/div&gt;&lt;div&gt;&lt;span style=&quot;font-size: 30px;&quot;&gt;会長は、必要に応じ役員会を招集する。&lt;/span&gt;&lt;/div&gt;&lt;div&gt;&lt;br&gt;&lt;/div&gt;" style="rounded=0;whiteSpace=wrap;html=1;align=left;dashed=1;dashPattern=8 8;verticalAlign=bottom;" parent="cFaB45KztUIKXS-_cTrr-14" vertex="1">
          <mxGeometry x="409" y="1115" width="1141" height="102" as="geometry" />
        </mxCell>
        <mxCell id="VKnDIp-SkED8zqVfQKuU-13" value="&lt;span style=&quot;font-size: 30px;&quot;&gt;経費&lt;/span&gt;" style="rounded=0;whiteSpace=wrap;html=1;align=right;dashed=1;dashPattern=8 8;verticalAlign=bottom;" parent="cFaB45KztUIKXS-_cTrr-14" vertex="1">
          <mxGeometry x="100" y="1264" width="290" height="46" as="geometry" />
        </mxCell>
        <mxCell id="VKnDIp-SkED8zqVfQKuU-14" value="&lt;div&gt;&lt;span style=&quot;font-size: 30px;&quot;&gt;第８条：本会の経費は、&lt;/span&gt;&lt;/div&gt;" style="rounded=0;whiteSpace=wrap;html=1;align=left;dashed=1;dashPattern=8 8;verticalAlign=bottom;" parent="cFaB45KztUIKXS-_cTrr-14" vertex="1">
          <mxGeometry x="409" y="1268" width="481" height="46" as="geometry" />
        </mxCell>
        <mxCell id="VKnDIp-SkED8zqVfQKuU-15" value="&lt;span style=&quot;font-size: 30px;&quot;&gt;会計年度及び会計監査&lt;/span&gt;" style="rounded=0;whiteSpace=wrap;html=1;align=right;dashed=1;dashPattern=8 8;verticalAlign=bottom;" parent="cFaB45KztUIKXS-_cTrr-14" vertex="1">
          <mxGeometry x="70" y="1464" width="320" height="46" as="geometry" />
        </mxCell>
        <mxCell id="VKnDIp-SkED8zqVfQKuU-16" value="&lt;div&gt;&lt;span style=&quot;font-size: 30px;&quot;&gt;本会の会計年度は、毎年１月１日から１２月３１日までとする。&lt;/span&gt;&lt;/div&gt;&lt;div&gt;&lt;span style=&quot;font-size: 30px;&quot;&gt;会計責任者は、本会の経理につき年１回監事による監査を受け、&lt;/span&gt;&lt;/div&gt;&lt;div&gt;&lt;span style=&quot;font-size: 30px;&quot;&gt;その監査意見書を付して総会に報告する。&lt;/span&gt;&lt;/div&gt;&lt;div&gt;&lt;br&gt;&lt;/div&gt;" style="rounded=0;whiteSpace=wrap;html=1;align=left;dashed=1;dashPattern=8 8;verticalAlign=bottom;" parent="cFaB45KztUIKXS-_cTrr-14" vertex="1">
          <mxGeometry x="409" y="1468" width="1111" height="132" as="geometry" />
        </mxCell>
        <mxCell id="VKnDIp-SkED8zqVfQKuU-17" value="&lt;span style=&quot;font-size: 30px;&quot;&gt;規約の改廃&lt;/span&gt;" style="rounded=0;whiteSpace=wrap;html=1;align=right;dashed=1;dashPattern=8 8;verticalAlign=bottom;" parent="cFaB45KztUIKXS-_cTrr-14" vertex="1">
          <mxGeometry x="70" y="1624" width="320" height="46" as="geometry" />
        </mxCell>
        <mxCell id="VKnDIp-SkED8zqVfQKuU-18" value="&lt;span style=&quot;font-size: 30px;&quot;&gt;第10条：本規約の改廃は、総会において決定する。&lt;/span&gt;" style="rounded=0;whiteSpace=wrap;html=1;align=left;dashed=1;dashPattern=8 8;verticalAlign=bottom;" parent="cFaB45KztUIKXS-_cTrr-14" vertex="1">
          <mxGeometry x="409" y="1628" width="851" height="46" as="geometry" />
        </mxCell>
        <mxCell id="VKnDIp-SkED8zqVfQKuU-19" value="&lt;span style=&quot;font-size: 30px;&quot;&gt;補則&lt;/span&gt;" style="rounded=0;whiteSpace=wrap;html=1;align=right;dashed=1;dashPattern=8 8;verticalAlign=bottom;" parent="cFaB45KztUIKXS-_cTrr-14" vertex="1">
          <mxGeometry x="70" y="1684" width="320" height="46" as="geometry" />
        </mxCell>
        <mxCell id="VKnDIp-SkED8zqVfQKuU-20" value="&lt;span style=&quot;font-size: 30px;&quot;&gt;第11条：本規約に定めのない事項については、役員会で決定する。&lt;/span&gt;" style="rounded=0;whiteSpace=wrap;html=1;align=left;dashed=1;dashPattern=8 8;verticalAlign=bottom;" parent="cFaB45KztUIKXS-_cTrr-14" vertex="1">
          <mxGeometry x="409" y="1688" width="981" height="46" as="geometry" />
        </mxCell>
        <mxCell id="VKnDIp-SkED8zqVfQKuU-21" value="&lt;span style=&quot;font-size: 30px;&quot;&gt;附則&lt;/span&gt;" style="rounded=0;whiteSpace=wrap;html=1;align=right;dashed=1;dashPattern=8 8;verticalAlign=bottom;" parent="cFaB45KztUIKXS-_cTrr-14" vertex="1">
          <mxGeometry x="70" y="2184" width="320" height="46" as="geometry" />
        </mxCell>
        <mxCell id="VKnDIp-SkED8zqVfQKuU-22" value="&lt;span style=&quot;font-size: 30px;&quot;&gt;本規約は、&lt;/span&gt;" style="rounded=0;whiteSpace=wrap;html=1;align=left;dashed=1;dashPattern=8 8;verticalAlign=bottom;" parent="cFaB45KztUIKXS-_cTrr-14" vertex="1">
          <mxGeometry x="409" y="2188" width="161" height="46" as="geometry" />
        </mxCell>
        <mxCell id="VKnDIp-SkED8zqVfQKuU-23" value="&lt;span style=&quot;font-size: 30px;&quot;&gt;2022/12/02&lt;/span&gt;" style="rounded=0;whiteSpace=wrap;html=1;align=left;dashed=1;dashPattern=8 8;verticalAlign=bottom;" parent="cFaB45KztUIKXS-_cTrr-14" vertex="1">
          <mxGeometry x="599" y="2188" width="181" height="46" as="geometry" />
        </mxCell>
        <mxCell id="VKnDIp-SkED8zqVfQKuU-24" value="&lt;span style=&quot;font-size: 30px;&quot;&gt;より実施する。&lt;/span&gt;" style="rounded=0;whiteSpace=wrap;html=1;align=left;dashed=1;dashPattern=8 8;verticalAlign=bottom;" parent="cFaB45KztUIKXS-_cTrr-14" vertex="1">
          <mxGeometry x="809" y="2187" width="261" height="46" as="geometry" />
        </mxCell>
        <mxCell id="VKnDIp-SkED8zqVfQKuU-25" value="&lt;div&gt;&lt;span style=&quot;font-size: 30px;&quot;&gt;寄附金その他の収入をもって当てる。&lt;/span&gt;&lt;/div&gt;" style="rounded=0;whiteSpace=wrap;html=1;align=left;dashed=1;dashPattern=8 8;verticalAlign=bottom;" parent="cFaB45KztUIKXS-_cTrr-14" vertex="1">
          <mxGeometry x="409" y="1398" width="551" height="46" as="geometry" />
        </mxCell>
        <mxCell id="VKnDIp-SkED8zqVfQKuU-26" value="&lt;span style=&quot;font-size: 30px;&quot;&gt;会費&lt;/span&gt;" style="rounded=0;whiteSpace=wrap;html=1;align=right;dashed=1;dashPattern=8 8;verticalAlign=bottom;" parent="cFaB45KztUIKXS-_cTrr-14" vertex="1">
          <mxGeometry x="410" y="1334" width="130" height="46" as="geometry" />
        </mxCell>
        <mxCell id="VKnDIp-SkED8zqVfQKuU-27" value="&lt;span style=&quot;font-size: 30px;&quot;&gt;▼ 年額&lt;/span&gt;" style="rounded=0;whiteSpace=wrap;html=1;align=left;" parent="cFaB45KztUIKXS-_cTrr-14" vertex="1">
          <mxGeometry x="553" y="1330" width="207" height="48" as="geometry" />
        </mxCell>
        <mxCell id="VKnDIp-SkED8zqVfQKuU-28" value="&lt;span style=&quot;font-size: 30px;&quot;&gt;12000&lt;/span&gt;" style="rounded=0;whiteSpace=wrap;html=1;align=right;" parent="cFaB45KztUIKXS-_cTrr-14" vertex="1">
          <mxGeometry x="784" y="1328" width="196" height="48" as="geometry" />
        </mxCell>
        <mxCell id="VKnDIp-SkED8zqVfQKuU-29" value="&lt;div&gt;&lt;span style=&quot;font-size: 30px;&quot;&gt;円とし、&lt;/span&gt;&lt;/div&gt;" style="rounded=0;whiteSpace=wrap;html=1;align=left;dashed=1;dashPattern=8 8;verticalAlign=bottom;" parent="cFaB45KztUIKXS-_cTrr-14" vertex="1">
          <mxGeometry x="1009" y="1328" width="181" height="46" as="geometry" />
        </mxCell>
        <mxCell id="VKnDIp-SkED8zqVfQKuU-30" value="&lt;span style=&quot;font-size: 30px;&quot;&gt;役員&lt;/span&gt;" style="rounded=0;whiteSpace=wrap;html=1;align=right;dashed=1;dashPattern=8 8;verticalAlign=bottom;" parent="cFaB45KztUIKXS-_cTrr-14" vertex="1">
          <mxGeometry x="100" y="874" width="290" height="46" as="geometry" />
        </mxCell>
        <mxCell id="VKnDIp-SkED8zqVfQKuU-31" value="&lt;div&gt;&lt;div&gt;&lt;span style=&quot;font-size: 30px;&quot;&gt;第５条：本会に次の役員をおく。&lt;/span&gt;&lt;/div&gt;&lt;div&gt;&lt;span style=&quot;font-size: 30px;&quot;&gt;代表者・会計責任者・会計職務代行者&lt;/span&gt;&lt;/div&gt;&lt;div&gt;&lt;br&gt;&lt;/div&gt;&lt;/div&gt;" style="rounded=0;whiteSpace=wrap;html=1;align=left;dashed=1;dashPattern=8 8;verticalAlign=bottom;" parent="cFaB45KztUIKXS-_cTrr-14" vertex="1">
          <mxGeometry x="409" y="878" width="1021" height="92" as="geometry" />
        </mxCell>
        <mxCell id="VKnDIp-SkED8zqVfQKuU-33" value="&lt;span style=&quot;font-size: 30px;&quot;&gt;を本来の目的とし、あわせて会員相互の親睦を深めることを目的 とする。&lt;/span&gt;" style="rounded=0;whiteSpace=wrap;html=1;align=left;dashed=1;dashPattern=8 8;verticalAlign=bottom;" parent="cFaB45KztUIKXS-_cTrr-14" vertex="1">
          <mxGeometry x="410" y="628" width="1040" height="46" as="geometry" />
        </mxCell>
        <mxCell id="VKnDIp-SkED8zqVfQKuU-35" value="&lt;span style=&quot;font-size: 30px;&quot;&gt;候補者または現職の　代表者　太郎　の資金管理&lt;/span&gt;" style="rounded=0;whiteSpace=wrap;html=1;align=left;fillColor=#CCCCCC;" parent="cFaB45KztUIKXS-_cTrr-14" vertex="1">
          <mxGeometry x="414" y="566" width="996" height="48" as="geometry" />
        </mxCell>
        <mxCell id="VKnDIp-SkED8zqVfQKuU-36" value="&lt;span style=&quot;font-size: 30px;&quot;&gt;と称し、主たる事務所を下記住所ににおく。&lt;/span&gt;" style="rounded=0;whiteSpace=wrap;html=1;align=left;dashed=1;dashPattern=8 8;verticalAlign=bottom;" parent="cFaB45KztUIKXS-_cTrr-14" vertex="1">
          <mxGeometry x="410" y="268" width="870" height="46" as="geometry" />
        </mxCell>
        <mxCell id="VKnDIp-SkED8zqVfQKuU-38" value="&lt;span style=&quot;font-size: 30px;&quot;&gt;『ちゃらんぽらん政治団体』&lt;/span&gt;" style="rounded=0;whiteSpace=wrap;html=1;align=left;dashed=1;dashPattern=8 8;verticalAlign=bottom;" parent="cFaB45KztUIKXS-_cTrr-14" vertex="1">
          <mxGeometry x="681" y="203" width="433" height="46" as="geometry" />
        </mxCell>
        <mxCell id="VKnDIp-SkED8zqVfQKuU-39" value="&lt;span style=&quot;font-size: 30px;&quot;&gt;事務所住所&lt;/span&gt;" style="rounded=0;whiteSpace=wrap;html=1;align=left;dashed=1;dashPattern=8 8;verticalAlign=bottom;" parent="cFaB45KztUIKXS-_cTrr-14" vertex="1">
          <mxGeometry x="410" y="328" width="870" height="46" as="geometry" />
        </mxCell>
        <mxCell id="VKnDIp-SkED8zqVfQKuU-40" value="&lt;span style=&quot;font-size: 30px;&quot;&gt;東京都千代田区霞が関xxxx番地zzzビルディングqqq号室&lt;/span&gt;" style="rounded=0;whiteSpace=wrap;html=1;align=left;dashed=1;dashPattern=8 8;verticalAlign=top;" parent="cFaB45KztUIKXS-_cTrr-14" vertex="1">
          <mxGeometry x="410" y="388" width="870" height="92" as="geometry" />
        </mxCell>
        <mxCell id="VKnDIp-SkED8zqVfQKuU-41" value="&lt;div&gt;&lt;span style=&quot;font-size: 30px;&quot;&gt;　第12条：紅茶のミルクは生乳が望ましいと貼り紙すること&lt;/span&gt;&lt;span style=&quot;font-size: 30px;&quot;&gt;&lt;br&gt;&lt;/span&gt;&lt;/div&gt;&lt;div&gt;&lt;span style=&quot;font-size: 30px;&quot;&gt;　…&lt;/span&gt;&lt;/div&gt;&lt;div&gt;&lt;span style=&quot;font-size: 30px;&quot;&gt;　第100条：コーヒーの砂糖は角砂糖1個が望ましいと貼り紙すること&lt;/span&gt;&lt;/div&gt;" style="rounded=1;whiteSpace=wrap;html=1;align=left;verticalAlign=top;" parent="cFaB45KztUIKXS-_cTrr-14" vertex="1">
          <mxGeometry x="400" y="1760" width="1100" height="400" as="geometry" />
        </mxCell>
        <mxCell id="k3r6u-Tfw8Y_SsJuEUts-0" value="&lt;span style=&quot;font-size: 30px;&quot;&gt;代表幹事、世話人&lt;/span&gt;" style="rounded=0;whiteSpace=wrap;html=1;align=left;" vertex="1" parent="cFaB45KztUIKXS-_cTrr-14">
          <mxGeometry x="932" y="910" width="506" height="48" as="geometry" />
        </mxCell>
      </root>
    </mxGraphModel>
  </diagram>
</mxfile>
